<svg version="1.1" id="Layer_1" xmlns="http://www.w3.org/2000/svg" xmlns:xlink="http://www.w3.org/1999/xlink" x="0px" y="0px"
	 width="100%" viewBox="0 0 2320 2320" enable-background="new 0 0 2320 2320" xml:space="preserve">
<path fill="#104FFF" opacity="1.000000" stroke="none" 
	d="
M2322.000000,4.000000 
	C2322.000000,775.398743 2322.000000,1546.797485 2321.077637,2319.098145 
	C1554.917480,2320.000000 789.679871,2320.000000 24.442289,2320.001465 
	C20.776194,2320.001465 17.092335,2319.810303 13.451332,2320.117920 
	C11.594462,2320.274902 9.814619,2321.343506 7.999976,2322.000000 
	C7.111109,2322.000000 6.222219,2322.000000 4.857802,2321.078857 
	C4.397995,2314.491699 4.427466,2308.825928 4.427481,2303.159912 
	C4.429534,1542.250977 4.428915,781.342041 4.438678,20.433071 
	C4.438747,15.102107 4.579924,9.771145 5.500844,4.309845 
	C9.677210,4.118660 13.007944,4.004522 16.338678,4.004492 
	C784.892456,3.997746 1553.446167,3.998989 2322.000000,4.000000 
M1668.212036,1060.999634 
	C1668.212036,1043.106934 1668.212036,1025.214355 1668.212036,1006.309021 
	C1672.934814,1006.309021 1676.515015,1006.308899 1680.095215,1006.309021 
	C1754.081665,1006.312073 1828.068237,1006.317505 1902.054688,1006.310974 
	C1905.719360,1006.310669 1909.398438,1006.396301 1913.046387,1006.119812 
	C1933.870605,1004.541809 1951.001099,987.004944 1952.199097,966.153503 
	C1953.486694,943.739929 1938.676270,923.959595 1917.503418,920.278137 
	C1912.622314,919.429443 1907.541870,919.530273 1902.552979,919.528137 
	C1828.566528,919.497131 1754.579956,919.522339 1680.593506,919.534180 
	C1676.724976,919.534790 1672.856323,919.534241 1669.183105,919.534241 
	C1667.157104,903.434998 1667.840820,829.639465 1670.051758,822.309021 
	C1673.524292,822.309021 1677.163574,822.309082 1680.802856,822.309082 
	C1742.458252,822.309082 1804.113770,822.302795 1865.769165,822.313721 
	C1880.432617,822.316345 1895.096069,822.385437 1909.759521,822.407898 
	C1920.585449,822.424438 1929.957642,818.587524 1937.954346,811.424744 
	C1951.272949,799.495056 1955.951660,780.638306 1949.755859,763.920227 
	C1943.135498,746.056213 1925.786377,735.457153 1907.942871,735.478149 
	C1743.639771,735.671448 1579.336426,735.614136 1415.033203,735.472656 
	C1409.549683,735.467957 1405.749878,737.232544 1401.963013,741.005920 
	C1329.485962,813.222412 1256.903320,885.332825 1184.362793,957.485596 
	C1182.596313,959.242554 1181.060547,961.231506 1178.870239,963.738342 
	C1182.340210,966.869507 1185.425293,969.428162 1188.257202,972.241638 
	C1258.713135,1042.237671 1329.204590,1112.198242 1399.457642,1182.397583 
	C1405.059204,1187.994873 1410.492065,1190.456665 1418.529541,1190.444580 
	C1579.499756,1190.203003 1740.470459,1190.264038 1901.441040,1190.263062 
	C1904.107178,1190.263062 1906.774780,1190.303467 1909.439331,1190.237427 
	C1933.442139,1189.642334 1951.925781,1171.281860 1952.274292,1147.710083 
	C1952.633789,1123.398071 1934.707397,1104.457764 1910.265259,1103.381470 
	C1906.938354,1103.234863 1903.600830,1103.315430 1900.268188,1103.318237 
	C1826.949463,1103.381226 1753.630615,1103.453125 1680.311890,1103.499756 
	C1676.452637,1103.502319 1672.593018,1103.296387 1668.212036,1103.172852 
	C1668.212036,1088.949951 1668.212036,1075.974609 1668.212036,1060.999634 
M628.999878,1006.308838 
	C648.887756,1006.308838 668.775574,1006.308838 688.447693,1006.308838 
	C690.435242,1018.934998 690.006897,1095.645752 688.007446,1103.133179 
	C685.504883,1103.256226 682.883179,1103.496704 680.261414,1103.497559 
	C616.266724,1103.517944 552.271973,1103.517090 488.277252,1103.509277 
	C474.280487,1103.507568 460.267212,1103.026001 446.291016,1103.550415 
	C428.084747,1104.233887 413.273010,1115.971924 407.592712,1133.199707 
	C401.985474,1150.205933 407.257538,1168.769165 421.024139,1180.250244 
	C429.876312,1187.632812 440.135254,1190.339844 451.607483,1190.332397 
	C614.927307,1190.226562 778.247192,1190.227661 941.566895,1190.396118 
	C947.755737,1190.402466 952.037842,1188.612915 956.401611,1184.258911 
	C1028.365601,1112.457153 1100.495605,1040.821411 1172.578613,969.138672 
	C1174.604126,967.124268 1176.521240,965.000671 1179.187744,962.192017 
	C1175.948853,959.352112 1173.053101,957.077759 1170.458740,954.500061 
	C1099.527466,884.022644 1028.567871,813.573364 957.838379,742.893860 
	C952.435120,737.494385 947.046204,735.435547 939.514648,735.444214 
	C778.194885,735.629822 616.874756,735.584778 455.554749,735.586304 
	C452.888367,735.586304 450.219635,735.538696 447.555939,735.628784 
	C426.076233,736.355652 408.217163,752.341919 405.868164,772.913391 
	C403.286896,795.518982 416.150696,815.412109 437.501923,820.941956 
	C442.882172,822.335388 448.714661,822.368652 454.339722,822.372192 
	C528.666504,822.419373 602.993286,822.349487 677.320068,822.309265 
	C681.181335,822.307190 685.042542,822.308960 688.692688,822.308960 
	C690.781982,839.589233 690.033936,912.283203 687.714478,919.534668 
	C683.915894,919.534668 679.936951,919.535278 675.958008,919.534607 
	C603.297363,919.522461 530.636658,919.508911 457.975983,919.501831 
	C454.310028,919.501526 450.638824,919.440552 446.979034,919.606079 
	C425.928864,920.557617 408.412598,936.297424 405.911346,956.439148 
	C403.152130,978.658203 415.312683,998.225952 436.266022,1004.336853 
	C441.588470,1005.889038 447.416626,1006.223267 453.014404,1006.235657 
	C511.009308,1006.363708 569.004639,1006.311218 628.999878,1006.308838 
M1325.294434,405.839417 
	C1333.743896,404.148987 1342.132080,401.963257 1350.660156,400.908539 
	C1359.056519,399.870148 1367.223267,400.941254 1372.161987,410.203613 
	C1378.409424,401.424988 1381.859619,392.507080 1383.662476,383.028595 
	C1385.391113,373.939911 1383.144531,369.078003 1374.370361,365.558411 
	C1367.374268,362.752075 1359.755981,360.579773 1352.280518,360.066254 
	C1333.693726,358.789520 1315.030273,358.640656 1296.399292,357.990265 
	C1292.918335,357.868774 1289.445435,357.521179 1285.067871,357.214905 
	C1286.362061,354.200562 1287.122070,352.460602 1287.858154,350.710541 
	C1290.613281,344.160187 1289.587158,341.527405 1282.830200,339.777466 
	C1279.011841,338.788574 1274.956787,338.417908 1270.994995,338.323486 
	C1225.688354,337.243286 1185.114502,350.835632 1149.062988,378.104248 
	C1118.284668,401.384369 1094.557373,430.800079 1075.571777,464.111755 
	C1040.298584,526.000977 1021.829590,592.721375 1018.663635,663.830017 
	C1018.374878,670.314392 1021.026794,674.274780 1025.237427,678.446289 
	C1074.220459,726.974548 1123.084351,775.622986 1171.994019,824.225281 
	C1174.095581,826.313660 1176.335449,828.262878 1178.804565,830.548889 
	C1181.013672,828.577087 1183.043701,826.927368 1184.890503,825.093140 
	C1234.284058,776.033325 1283.586060,726.880798 1333.153687,677.997559 
	C1337.924927,673.292114 1338.449829,669.057251 1337.031738,662.984802 
	C1322.277954,599.809998 1307.516357,536.634583 1293.328979,473.331116 
	C1288.053345,449.791992 1295.199707,418.209198 1325.294434,405.839417 
M1077.001709,1196.001709 
	C1063.057007,1209.867188 1049.112793,1223.733154 1035.167725,1237.598267 
	C1021.222717,1251.463257 1007.275330,1265.325928 993.331848,1279.192505 
	C979.562927,1292.885376 965.770325,1306.555786 950.911133,1321.403198 
	C1103.757202,1321.403198 1254.394043,1321.403198 1406.907959,1321.403198 
	C1330.146973,1245.079956 1254.704346,1170.067261 1178.893799,1094.688965 
	C1144.618042,1128.769775 1111.311279,1161.887207 1077.001709,1196.001709 
M1853.776855,1552.775513 
	C1833.916504,1572.410522 1814.056274,1592.045532 1794.632568,1611.249023 
	C1793.275513,1610.980225 1792.928711,1610.996704 1792.685059,1610.846191 
	C1792.120850,1610.497314 1791.548462,1610.126465 1791.080444,1609.662598 
	C1740.916138,1559.940918 1690.761841,1510.209229 1640.597900,1460.487183 
	C1639.894165,1459.789551 1639.090088,1459.188843 1638.301880,1458.583008 
	C1638.068848,1458.403809 1637.721436,1458.262817 1637.441040,1458.285400 
	C1637.130371,1458.310547 1636.836426,1458.543213 1636.185791,1458.850708 
	C1636.185791,1561.784668 1636.185791,1664.883423 1636.185791,1768.339844 
	C1653.512451,1768.339844 1670.341675,1768.339844 1688.173096,1768.339844 
	C1688.173096,1706.617554 1688.173096,1645.548584 1688.173096,1581.951904 
	C1724.295654,1617.762695 1758.649048,1651.819580 1793.439453,1686.309692 
	C1828.256348,1651.692261 1862.374512,1617.769653 1896.492676,1583.847046 
	C1897.139404,1584.109497 1897.786133,1584.371948 1898.432861,1584.634399 
	C1898.432861,1645.661621 1898.432861,1706.688843 1898.432861,1768.351562 
	C1916.733032,1768.351562 1933.879517,1768.351562 1950.962524,1768.351562 
	C1953.108643,1755.970581 1952.495239,1464.763306 1950.114380,1457.448242 
	C1918.158203,1489.070312 1886.470825,1520.426270 1853.776855,1552.775513 
M1575.807373,1567.310181 
	C1552.403320,1497.601074 1492.692871,1455.703491 1419.985962,1455.463989 
	C1333.445801,1455.178833 1246.323120,1538.252808 1269.006104,1645.789429 
	C1285.992188,1726.318115 1365.271851,1779.293457 1447.576904,1767.662720 
	C1524.157227,1756.840942 1605.663452,1676.938477 1575.807373,1567.310181 
M489.005859,1586.289185 
	C478.803741,1586.289185 468.601593,1586.289185 458.355194,1586.289185 
	C458.355194,1559.533936 458.355194,1534.066528 458.355194,1507.848145 
	C484.927246,1507.848145 510.861755,1507.885498 536.796143,1507.837646 
	C562.966797,1507.789429 589.145325,1508.057007 615.366089,1507.657715 
	C615.366089,1489.741333 615.366089,1473.212158 615.366089,1456.217041 
	C545.377686,1456.217041 475.924835,1456.217041 406.185303,1456.217041 
	C406.185303,1560.548584 406.185303,1664.326172 406.185303,1768.294189 
	C476.298584,1768.294189 545.787292,1768.294189 615.901367,1768.294189 
	C615.901367,1759.287842 616.115051,1750.973145 615.841919,1742.674561 
	C615.562805,1734.192017 617.098755,1725.575317 614.622681,1716.380615 
	C562.397339,1716.380615 510.545685,1716.380615 458.233856,1716.380615 
	C458.233856,1690.037109 458.233856,1664.566040 458.233856,1638.055664 
	C484.646027,1638.055664 510.548523,1638.055664 536.451050,1638.055664 
	C562.653809,1638.055664 588.856506,1638.055664 615.310303,1638.055664 
	C615.310303,1620.257568 615.310303,1603.779297 615.310303,1586.289185 
	C573.486084,1586.289185 532.244629,1586.289185 489.005859,1586.289185 
M1123.865356,1715.629761 
	C1115.877686,1715.857788 1107.865356,1716.608398 1099.906372,1716.231079 
	C1040.122437,1713.395630 993.449524,1657.205688 1002.640686,1598.051392 
	C1008.866394,1557.982910 1031.639893,1529.361450 1069.454834,1514.977417 
	C1106.711792,1500.805542 1142.152222,1506.252930 1173.845459,1531.417603 
	C1176.409058,1533.453247 1178.879150,1535.606934 1180.946777,1537.333252 
	C1193.176514,1524.686157 1205.085571,1512.370483 1217.008911,1500.040161 
	C1162.155640,1443.066040 1057.787842,1435.758179 991.494629,1505.934814 
	C929.305786,1571.766724 936.116028,1675.054077 1006.049316,1732.421997 
	C1078.885986,1792.171753 1175.727173,1771.374512 1218.268921,1722.116455 
	C1206.204346,1710.365112 1194.120605,1698.594971 1181.698120,1686.494995 
	C1165.253174,1702.078125 1146.896729,1711.645386 1123.865356,1715.629761 
M710.427795,1754.659058 
	C710.427795,1759.170044 710.427795,1763.681030 710.427795,1768.316650 
	C781.340149,1768.316650 850.778809,1768.316650 921.102417,1768.316650 
	C921.106934,1750.836060 921.297791,1734.055054 920.967407,1716.558105 
	C906.635559,1716.558105 893.684204,1716.558105 880.732849,1716.558105 
	C867.739868,1716.558105 854.746826,1716.558105 841.753845,1716.558105 
	C828.427673,1716.558105 815.101379,1716.585693 801.775269,1716.550171 
	C788.918945,1716.515869 776.062683,1716.416626 762.436035,1716.341553 
	C762.436035,1628.803833 762.436035,1542.615845 762.436035,1456.371826 
	C744.809204,1456.371826 728.013672,1456.371826 710.427795,1456.371826 
	C710.427795,1555.632935 710.427795,1654.182861 710.427795,1754.659058 
M1884.415039,1980.751831 
	C1884.415039,1985.612427 1884.415039,1990.473022 1884.415039,1995.394531 
	C1889.100830,1995.394531 1892.284912,1995.394531 1896.398682,1995.394531 
	C1896.398682,1991.623535 1896.398071,1988.357544 1896.398804,1985.091675 
	C1896.401245,1974.438965 1895.834351,1963.744629 1896.611694,1953.148682 
	C1897.110962,1946.341675 1898.667236,1939.273804 1901.408569,1933.053955 
	C1904.986572,1924.936035 1912.675537,1921.970093 1921.293213,1922.577271 
	C1930.189819,1923.204224 1936.245605,1928.041870 1938.413696,1936.803467 
	C1939.518555,1941.268677 1940.088379,1945.960693 1940.178223,1950.564331 
	C1940.418457,1962.876831 1940.230713,1975.197144 1940.304443,1987.513794 
	C1940.319702,1990.083862 1940.728516,1992.651611 1940.980957,1995.502197 
	C1944.761353,1995.502197 1947.951904,1995.502197 1951.593018,1995.502197 
	C1951.593018,1975.544312 1952.424072,1955.962769 1951.266968,1936.499512 
	C1950.620605,1925.630127 1943.670898,1917.353882 1932.557861,1914.128540 
	C1920.251343,1910.557007 1908.797119,1912.114502 1899.109741,1921.209961 
	C1896.956543,1923.231689 1895.153198,1925.626221 1893.149780,1927.893188 
	C1878.242920,1908.035278 1865.310669,1907.181763 1841.824097,1924.685059 
	C1841.030762,1921.373169 1840.293701,1918.295654 1839.520386,1915.067383 
	C1836.219727,1915.067383 1833.103027,1915.067383 1830.167725,1915.067383 
	C1830.167725,1942.195312 1830.167725,1968.675537 1830.167725,1995.940186 
	C1834.389771,1995.736816 1837.786987,1995.573120 1840.821167,1995.427002 
	C1841.290405,1993.647461 1841.598877,1993.017212 1841.602295,1992.385376 
	C1841.670044,1979.737061 1841.432739,1967.079346 1841.866699,1954.444458 
	C1842.057739,1948.882202 1842.635010,1942.946289 1844.810059,1937.952515 
	C1846.819336,1933.339233 1850.490601,1928.692261 1854.665039,1925.920044 
	C1867.607666,1917.324829 1882.655151,1924.477417 1883.827026,1939.895264 
	C1884.808594,1952.809937 1884.276733,1965.839478 1884.415039,1980.751831 
M1321.366089,1917.296997 
	C1314.550659,1913.192871 1307.160156,1911.878296 1299.303833,1912.637939 
	C1288.733398,1913.659912 1281.259888,1919.816772 1275.005493,1927.916870 
	C1260.530151,1908.239136 1249.198120,1907.531494 1223.371338,1924.559937 
	C1222.730347,1921.242188 1222.130371,1918.136230 1221.406250,1914.388306 
	C1217.806641,1914.624512 1214.725342,1914.826782 1212.173584,1914.994263 
	C1212.173584,1942.502930 1212.173584,1968.995117 1212.173584,1996.049927 
	C1216.314575,1995.802856 1219.500488,1995.612671 1223.640869,1995.365601 
	C1223.640869,1991.470947 1223.638428,1988.213379 1223.641235,1984.955811 
	C1223.650757,1974.293823 1223.231567,1963.606934 1223.843262,1952.979492 
	C1224.179565,1947.137207 1225.372681,1941.004272 1227.730469,1935.690552 
	C1232.282715,1925.431396 1242.375610,1920.735840 1252.254761,1923.048340 
	C1261.426147,1925.195068 1265.813477,1931.154419 1266.130005,1943.404175 
	C1266.499878,1957.722290 1266.255615,1972.055786 1266.345703,1986.382202 
	C1266.364014,1989.292236 1266.685303,1992.200562 1266.869751,1995.156982 
	C1270.983643,1995.156982 1274.387939,1995.156982 1278.342651,1995.156982 
	C1278.342651,1980.757202 1277.790039,1967.092773 1278.569092,1953.504639 
	C1278.976562,1946.396240 1280.403320,1938.720459 1283.689819,1932.533447 
	C1290.456665,1919.795044 1309.893921,1918.638306 1317.150269,1930.313965 
	C1320.147339,1935.136230 1321.603760,1941.506104 1321.931885,1947.276123 
	C1322.649536,1959.897583 1322.199219,1972.585815 1322.222900,1985.246704 
	C1322.229004,1988.487061 1322.223755,1991.727417 1322.223755,1995.195557 
	C1326.775146,1995.195557 1330.166138,1995.195557 1333.933960,1995.195557 
	C1333.933960,1976.179932 1334.303345,1957.887451 1333.771118,1939.621338 
	C1333.522095,1931.075073 1329.720215,1923.532837 1321.366089,1917.296997 
M553.379578,1957.901978 
	C557.356323,1970.526978 561.333130,1983.152100 565.198242,1995.422607 
	C570.215271,1995.422607 574.089783,1995.422607 578.359192,1995.422607 
	C585.206909,1974.541748 591.938538,1954.014771 598.670166,1933.487793 
	C599.391724,1933.539062 600.113220,1933.590332 600.834778,1933.641602 
	C607.755554,1954.319824 614.676392,1974.998047 621.521851,1995.451294 
	C626.289612,1995.451294 630.172729,1995.451294 634.632507,1995.451294 
	C643.087585,1968.662109 651.449036,1942.169312 660.061584,1914.881104 
	C655.282532,1914.881104 651.756226,1914.881104 647.834656,1914.881104 
	C640.516052,1935.444580 636.146851,1956.760742 626.753357,1976.680664 
	C619.695374,1956.004639 612.637390,1935.328613 605.616577,1914.761475 
	C601.386597,1914.761475 598.122253,1914.761475 594.186584,1914.761475 
	C587.212158,1935.524170 580.274658,1956.176880 573.337158,1976.829712 
	C572.641846,1976.904419 571.946594,1976.979248 571.251282,1977.053955 
	C564.945312,1956.301514 558.639282,1935.549072 552.370422,1914.918823 
	C548.005615,1914.918823 544.452271,1914.918823 539.838501,1914.918823 
	C544.314697,1929.258057 548.553223,1942.836060 553.379578,1957.901978 
M481.102905,1974.267090 
	C483.497681,1981.440430 485.892456,1988.613892 488.170563,1995.437744 
	C493.182434,1995.437744 497.080963,1995.437744 501.323364,1995.437744 
	C509.781982,1968.597168 518.122498,1942.131348 526.692261,1914.937988 
	C521.628601,1914.937988 518.117249,1914.937988 514.238159,1914.937988 
	C507.928223,1936.026001 501.731262,1956.736450 495.534302,1977.446899 
	C494.912140,1977.423584 494.289978,1977.400269 493.667816,1977.376953 
	C486.512207,1956.422241 479.356598,1935.467651 472.307526,1914.824951 
	C467.935120,1914.824951 464.675140,1914.824951 460.834839,1914.824951 
	C453.751740,1935.893066 446.731628,1956.773926 439.711487,1977.654785 
	C439.136017,1977.609497 438.560577,1977.564209 437.985107,1977.518921 
	C431.670563,1956.613037 425.356018,1935.707031 419.105316,1915.012451 
	C414.665436,1915.012451 411.164154,1915.012451 406.456665,1915.012451 
	C415.136322,1942.460449 423.528931,1969.000732 431.917633,1995.528564 
	C436.616913,1995.528564 440.524200,1995.528564 444.970795,1995.528564 
	C451.838013,1974.651611 458.636536,1953.983398 465.435028,1933.315186 
	C466.130096,1933.364258 466.825165,1933.413208 467.520203,1933.462280 
	C471.844574,1946.577393 476.168915,1959.692383 481.102905,1974.267090 
M775.684448,1932.358032 
	C771.138489,1947.513916 766.592590,1962.669800 762.046692,1977.825684 
	C761.496643,1977.771118 760.946594,1977.716553 760.396545,1977.661987 
	C753.239075,1956.666504 746.081665,1935.670898 738.955688,1914.767700 
	C734.752625,1914.767700 731.500366,1914.767700 727.513123,1914.767700 
	C720.438904,1935.797119 713.393982,1956.739136 706.349121,1977.681152 
	C705.759338,1977.588135 705.169495,1977.495239 704.579712,1977.402222 
	C698.286682,1956.531616 691.993652,1935.661011 685.701294,1914.792725 
	C683.213196,1914.625000 681.566040,1914.365845 679.934814,1914.442627 
	C678.043945,1914.531494 676.166992,1914.915649 673.207947,1915.317871 
	C681.799011,1942.500732 690.176331,1969.007446 698.572632,1995.574219 
	C703.290344,1995.574219 707.207092,1995.574219 711.582275,1995.574219 
	C718.526489,1974.505493 725.405640,1953.634277 732.284729,1932.763184 
	C732.840515,1932.825195 733.396301,1932.887329 733.952026,1932.949341 
	C740.977966,1953.950928 748.003967,1974.952515 754.822388,1995.333740 
	C759.983093,1995.333740 763.846130,1995.333740 768.005188,1995.333740 
	C776.212463,1968.335205 785.463989,1942.177979 792.870544,1915.031494 
	C788.000366,1915.031494 784.497681,1915.031494 780.886353,1915.031494 
	C779.162537,1920.648315 777.605652,1925.720947 775.684448,1932.358032 
M877.371582,1958.325195 
	C886.690125,1958.325073 896.009277,1958.389404 905.327087,1958.307251 
	C914.826355,1958.223511 924.365173,1958.694214 933.909485,1957.967529 
	C933.909485,1953.348755 934.196289,1950.004028 933.860840,1946.722778 
	C932.234985,1930.818115 922.345459,1918.371582 908.274475,1914.244263 
	C884.544495,1907.283936 861.507812,1920.320801 855.703308,1943.995239 
	C849.461243,1969.454590 864.012085,1992.938843 888.823303,1997.449463 
	C905.544556,2000.489380 922.718750,1993.330688 930.133362,1979.845093 
	C927.667969,1978.039917 925.147949,1976.194702 922.562439,1974.301636 
	C911.718201,1986.408081 899.306030,1991.519165 884.505432,1985.176270 
	C873.675720,1980.535156 867.573242,1971.871338 867.378113,1958.980469 
	C870.377319,1958.738037 872.926086,1958.531860 877.371582,1958.325195 
M1714.577148,1946.327759 
	C1709.337646,1976.408813 1730.804077,2000.003052 1761.001709,1997.875732 
	C1781.597656,1996.424927 1797.793701,1981.301270 1800.050293,1961.530884 
	C1802.577148,1939.391235 1791.211060,1920.630981 1771.379883,1914.621216 
	C1746.084839,1906.955811 1720.416748,1920.153198 1714.577148,1946.327759 
M1165.863770,1920.995728 
	C1159.292236,1916.021851 1151.717529,1913.656616 1143.674194,1912.658447 
	C1120.786133,1909.818237 1099.983765,1925.148682 1096.284424,1947.508179 
	C1092.294922,1971.619995 1106.566284,1992.526367 1130.236084,1997.245117 
	C1153.930054,2001.968628 1176.664062,1988.021118 1181.292114,1965.132568 
	C1184.693115,1948.311768 1180.627930,1933.375244 1165.863770,1920.995728 
M1545.194946,1938.351562 
	C1543.329346,1927.521362 1538.495850,1918.706421 1527.667358,1914.721924 
	C1515.906616,1910.394287 1504.744629,1912.051270 1494.575928,1919.507935 
	C1492.307739,1921.171143 1490.176880,1923.021362 1487.231567,1925.389648 
	C1486.489258,1921.187500 1485.944824,1918.105225 1485.286011,1914.376099 
	C1481.573853,1914.623657 1478.477295,1914.829956 1475.878174,1915.003296 
	C1475.878174,1942.443237 1475.878174,1968.885010 1475.878174,1995.406738 
	C1480.022461,1995.406738 1483.208496,1995.406738 1487.426514,1995.406738 
	C1487.426514,1991.618164 1487.420410,1988.358032 1487.427490,1985.098022 
	C1487.451172,1974.112427 1487.442505,1963.126587 1487.519653,1952.141357 
	C1487.569702,1945.007690 1489.031860,1938.196777 1493.335205,1932.355347 
	C1499.214722,1924.374512 1507.202759,1921.271240 1516.961182,1922.998779 
	C1526.455078,1924.679565 1531.208496,1930.955444 1532.707153,1940.002686 
	C1533.355713,1943.918091 1533.721680,1947.920166 1533.767212,1951.888062 
	C1533.904541,1963.871094 1533.778809,1975.857056 1533.859375,1987.841187 
	C1533.876587,1990.394043 1534.333008,1992.943970 1534.638550,1996.011719 
	C1538.507446,1995.802490 1541.695801,1995.630127 1544.858643,1995.458984 
	C1545.279419,1993.885376 1545.749512,1992.949219 1545.747070,1992.014404 
	C1545.701782,1974.707275 1545.600098,1957.400391 1545.194946,1938.351562 
M1623.902344,1946.894531 
	C1623.719971,1949.218262 1623.438232,1951.539062 1623.369873,1953.866211 
	C1622.320923,1989.574097 1654.955200,2004.061768 1680.521118,1995.756348 
	C1687.108643,1993.616211 1693.118164,1990.263184 1696.738037,1983.333008 
	C1693.911133,1981.301270 1691.530029,1979.589966 1689.254028,1977.954346 
	C1672.216553,1990.763306 1655.668457,1990.842407 1644.226807,1978.428345 
	C1633.167847,1966.429321 1633.016479,1944.749268 1643.837891,1932.454956 
	C1649.203613,1926.358765 1656.127075,1923.427612 1663.966919,1922.585938 
	C1673.600220,1921.551758 1681.289185,1925.894043 1688.176514,1932.869873 
	C1691.090820,1930.594849 1693.567017,1928.661743 1696.319092,1926.513428 
	C1691.479492,1919.559204 1685.045166,1916.262329 1677.973022,1914.176025 
	C1657.406616,1908.109375 1629.857666,1918.010620 1623.902344,1946.894531 
M1023.890076,1991.340820 
	C1036.083740,1998.354980 1048.973755,2000.087280 1062.375854,1995.753296 
	C1068.974731,1993.619263 1075.052124,1990.345459 1078.606445,1983.332520 
	C1075.816162,1981.311523 1073.444702,1979.593994 1071.176147,1977.950806 
	C1054.070679,1990.760376 1037.557983,1990.838379 1026.114014,1978.418091 
	C1015.070251,1966.432617 1014.933777,1944.699219 1025.764648,1932.418945 
	C1031.137939,1926.326782 1038.072754,1923.408813 1045.918457,1922.584839 
	C1055.539673,1921.574219 1063.231812,1925.901611 1070.080566,1932.884644 
	C1073.030029,1930.569458 1075.501587,1928.629395 1078.637207,1926.168091 
	C1066.294556,1913.271606 1052.164917,1910.030640 1036.170288,1914.058105 
	C1020.197205,1918.079956 1009.677612,1928.378540 1006.401794,1944.426758 
	C1002.684387,1962.638794 1006.609985,1978.909302 1023.890076,1991.340820 
M963.745789,1937.000000 
	C963.745789,1946.656738 963.741760,1956.313354 963.746948,1965.970093 
	C963.752197,1975.837402 963.766418,1985.704712 963.776672,1995.570435 
	C966.916443,1995.746582 968.574707,1995.957397 970.223267,1995.897827 
	C971.790100,1995.841187 973.346680,1995.501221 975.112183,1995.257568 
	C975.112183,1951.587524 975.112183,1908.491821 975.112183,1865.306763 
	C971.054871,1865.306763 967.656555,1865.306763 963.745789,1865.306763 
	C963.745789,1889.085938 963.745789,1912.042969 963.745789,1937.000000 
M1428.102661,1931.186768 
	C1428.102661,1952.429199 1428.102661,1973.671631 1428.102661,1995.236450 
	C1432.599731,1995.236450 1436.000732,1995.236450 1439.416992,1995.236450 
	C1439.416992,1968.053711 1439.416992,1941.583130 1439.416992,1914.977051 
	C1435.520752,1914.977051 1432.346191,1914.977051 1428.102905,1914.977051 
	C1428.102905,1920.083374 1428.102905,1924.671265 1428.102661,1931.186768 
M1377.269043,1948.562256 
	C1372.390625,1948.562256 1367.512207,1948.562256 1362.069824,1948.562256 
	C1362.069824,1952.189697 1362.069824,1954.972534 1362.069824,1958.127075 
	C1374.724365,1958.127075 1387.085815,1958.127075 1400.193237,1958.127075 
	C1399.984863,1954.783691 1399.813599,1952.034668 1399.597290,1948.562378 
	C1392.277100,1948.562378 1385.715088,1948.562378 1377.269043,1948.562256 
M817.435852,1996.673706 
	C819.044922,1996.406372 820.870728,1996.537720 822.224915,1995.801392 
	C827.627075,1992.864746 829.102478,1987.260254 825.976990,1982.508057 
	C822.998413,1977.979736 817.443604,1976.780151 813.075317,1979.722168 
	C808.356628,1982.900269 807.376770,1988.791626 811.138245,1993.456177 
	C812.270569,1994.860229 814.374023,1995.481201 817.435852,1996.673706 
M1588.579590,1978.236084 
	C1586.368774,1978.739746 1583.845947,1978.731079 1582.009888,1979.849609 
	C1577.703491,1982.473389 1576.573486,1987.845459 1578.931763,1992.051147 
	C1581.406006,1996.463501 1587.564087,1998.048218 1591.943115,1995.399414 
	C1595.997314,1992.947021 1597.641968,1987.542114 1595.133545,1983.200439 
	C1594.054321,1981.332397 1591.815430,1980.134277 1588.579590,1978.236084 
M1425.976929,1884.714111 
	C1426.943481,1886.385376 1427.558960,1888.468750 1428.944214,1889.648560 
	C1432.712646,1892.858154 1437.206787,1892.379150 1440.327515,1888.868652 
	C1443.258667,1885.571777 1442.974609,1880.246338 1439.713013,1877.350952 
	C1436.422363,1874.429810 1431.454346,1874.495850 1428.221191,1877.937622 
	C1426.986572,1879.252075 1426.650635,1881.410522 1425.976929,1884.714111 
z"/>
<path fill="#9AB4FF" opacity="1.000000" stroke="none" 
	d="
M2322.000000,3.000000 
	C1553.446167,3.998989 784.892456,3.997746 16.338678,4.004492 
	C13.007944,4.004522 9.677210,4.118660 4.836188,4.204525 
	C2.883933,4.153028 2.441967,4.076514 2.000000,4.000000 
	C2.333333,3.333333 2.631839,2.112396 3.005587,2.088912 
	C5.661766,1.922009 8.333333,2.000000 11.000000,2.000000 
	C781.333313,2.000000 1551.666626,2.000000 2322.000000,3.000000 
z"/>
<path fill="#7B9EFF" opacity="1.000000" stroke="none" 
	d="
M2.000000,4.937315 
	C2.441967,4.076514 2.883933,4.153028 3.990556,4.334862 
	C4.579924,9.771145 4.438747,15.102107 4.438678,20.433071 
	C4.428915,781.342041 4.429534,1542.250977 4.427481,2303.159912 
	C4.427466,2308.825928 4.397995,2314.491699 4.191125,2321.078857 
	C3.333306,2321.667236 2.112343,2321.369141 2.088893,2320.995605 
	C1.922044,2318.340332 2.000000,2315.669922 2.000000,2313.004150 
	C2.000000,1543.960938 2.000000,774.917786 2.000000,4.937315 
z"/>
<path fill="#2C64FF" opacity="1.000000" stroke="none" 
	d="
M8.922485,2322.000000 
	C9.814619,2321.343506 11.594462,2320.274902 13.451332,2320.117920 
	C17.092335,2319.810303 20.776194,2320.001465 24.442289,2320.001465 
	C789.679871,2320.000000 1554.917480,2320.000000 2321.077637,2320.000000 
	C2321.666992,2320.666748 2321.368896,2321.887695 2320.995361,2321.911133 
	C2318.340088,2322.077881 2315.669678,2322.000000 2313.003906,2322.000000 
	C1545.284302,2322.000000 777.564636,2322.000000 8.922485,2322.000000 
z"/>
<path fill="#FFFFFF" opacity="1.000000" stroke="none" 
	d="
M1668.212036,1061.999512 
	C1668.212036,1075.974609 1668.212036,1088.949951 1668.212036,1103.172852 
	C1672.593018,1103.296387 1676.452637,1103.502319 1680.311890,1103.499756 
	C1753.630615,1103.453125 1826.949463,1103.381226 1900.268188,1103.318237 
	C1903.600830,1103.315430 1906.938354,1103.234863 1910.265259,1103.381470 
	C1934.707397,1104.457764 1952.633789,1123.398071 1952.274292,1147.710083 
	C1951.925781,1171.281860 1933.442139,1189.642334 1909.439331,1190.237427 
	C1906.774780,1190.303467 1904.107178,1190.263062 1901.441040,1190.263062 
	C1740.470459,1190.264038 1579.499756,1190.203003 1418.529541,1190.444580 
	C1410.492065,1190.456665 1405.059204,1187.994873 1399.457642,1182.397583 
	C1329.204590,1112.198242 1258.713135,1042.237671 1188.257202,972.241638 
	C1185.425293,969.428162 1182.340210,966.869507 1178.870239,963.738342 
	C1181.060547,961.231506 1182.596313,959.242554 1184.362793,957.485596 
	C1256.903320,885.332825 1329.485962,813.222412 1401.963013,741.005920 
	C1405.749878,737.232544 1409.549683,735.467957 1415.033203,735.472656 
	C1579.336426,735.614136 1743.639771,735.671448 1907.942871,735.478149 
	C1925.786377,735.457153 1943.135498,746.056213 1949.755859,763.920227 
	C1955.951660,780.638306 1951.272949,799.495056 1937.954346,811.424744 
	C1929.957642,818.587524 1920.585449,822.424438 1909.759521,822.407898 
	C1895.096069,822.385437 1880.432617,822.316345 1865.769165,822.313721 
	C1804.113770,822.302795 1742.458252,822.309082 1680.802856,822.309082 
	C1677.163574,822.309082 1673.524292,822.309021 1670.051758,822.309021 
	C1667.840820,829.639465 1667.157104,903.434998 1669.183105,919.534241 
	C1672.856323,919.534241 1676.724976,919.534790 1680.593506,919.534180 
	C1754.579956,919.522339 1828.566528,919.497131 1902.552979,919.528137 
	C1907.541870,919.530273 1912.622314,919.429443 1917.503418,920.278137 
	C1938.676270,923.959595 1953.486694,943.739929 1952.199097,966.153503 
	C1951.001099,987.004944 1933.870605,1004.541809 1913.046387,1006.119812 
	C1909.398438,1006.396301 1905.719360,1006.310669 1902.054688,1006.310974 
	C1828.068237,1006.317505 1754.081665,1006.312073 1680.095215,1006.309021 
	C1676.515015,1006.308899 1672.934814,1006.309021 1668.212036,1006.309021 
	C1668.212036,1025.214355 1668.212036,1043.106934 1668.212036,1061.999512 
z"/>
<path fill="#FFFFFF" opacity="1.000000" stroke="none" 
	d="
M627.999878,1006.308838 
	C569.004639,1006.311218 511.009308,1006.363708 453.014404,1006.235657 
	C447.416626,1006.223267 441.588470,1005.889038 436.266022,1004.336853 
	C415.312683,998.225952 403.152130,978.658203 405.911346,956.439148 
	C408.412598,936.297424 425.928864,920.557617 446.979034,919.606079 
	C450.638824,919.440552 454.310028,919.501526 457.975983,919.501831 
	C530.636658,919.508911 603.297363,919.522461 675.958008,919.534607 
	C679.936951,919.535278 683.915894,919.534668 687.714478,919.534668 
	C690.033936,912.283203 690.781982,839.589233 688.692688,822.308960 
	C685.042542,822.308960 681.181335,822.307190 677.320068,822.309265 
	C602.993286,822.349487 528.666504,822.419373 454.339722,822.372192 
	C448.714661,822.368652 442.882172,822.335388 437.501923,820.941956 
	C416.150696,815.412109 403.286896,795.518982 405.868164,772.913391 
	C408.217163,752.341919 426.076233,736.355652 447.555939,735.628784 
	C450.219635,735.538696 452.888367,735.586304 455.554749,735.586304 
	C616.874756,735.584778 778.194885,735.629822 939.514648,735.444214 
	C947.046204,735.435547 952.435120,737.494385 957.838379,742.893860 
	C1028.567871,813.573364 1099.527466,884.022644 1170.458740,954.500061 
	C1173.053101,957.077759 1175.948853,959.352112 1179.187744,962.192017 
	C1176.521240,965.000671 1174.604126,967.124268 1172.578613,969.138672 
	C1100.495605,1040.821411 1028.365601,1112.457153 956.401611,1184.258911 
	C952.037842,1188.612915 947.755737,1190.402466 941.566895,1190.396118 
	C778.247192,1190.227661 614.927307,1190.226562 451.607483,1190.332397 
	C440.135254,1190.339844 429.876312,1187.632812 421.024139,1180.250244 
	C407.257538,1168.769165 401.985474,1150.205933 407.592712,1133.199707 
	C413.273010,1115.971924 428.084747,1104.233887 446.291016,1103.550415 
	C460.267212,1103.026001 474.280487,1103.507568 488.277252,1103.509277 
	C552.271973,1103.517090 616.266724,1103.517944 680.261414,1103.497559 
	C682.883179,1103.496704 685.504883,1103.256226 688.007446,1103.133179 
	C690.006897,1095.645752 690.435242,1018.934998 688.447693,1006.308838 
	C668.775574,1006.308838 648.887756,1006.308838 627.999878,1006.308838 
z"/>
<path fill="#FEFEFF" opacity="1.000000" stroke="none" 
	d="
M1324.558350,406.089233 
	C1295.199707,418.209198 1288.053345,449.791992 1293.328979,473.331116 
	C1307.516357,536.634583 1322.277954,599.809998 1337.031738,662.984802 
	C1338.449829,669.057251 1337.924927,673.292114 1333.153687,677.997559 
	C1283.586060,726.880798 1234.284058,776.033325 1184.890503,825.093140 
	C1183.043701,826.927368 1181.013672,828.577087 1178.804565,830.548889 
	C1176.335449,828.262878 1174.095581,826.313660 1171.994019,824.225281 
	C1123.084351,775.622986 1074.220459,726.974548 1025.237427,678.446289 
	C1021.026794,674.274780 1018.374878,670.314392 1018.663635,663.830017 
	C1021.829590,592.721375 1040.298584,526.000977 1075.571777,464.111755 
	C1094.557373,430.800079 1118.284668,401.384369 1149.062988,378.104248 
	C1185.114502,350.835632 1225.688354,337.243286 1270.994995,338.323486 
	C1274.956787,338.417908 1279.011841,338.788574 1282.830200,339.777466 
	C1289.587158,341.527405 1290.613281,344.160187 1287.858154,350.710541 
	C1287.122070,352.460602 1286.362061,354.200562 1285.067871,357.214905 
	C1289.445435,357.521179 1292.918335,357.868774 1296.399292,357.990265 
	C1315.030273,358.640656 1333.693726,358.789520 1352.280518,360.066254 
	C1359.755981,360.579773 1367.374268,362.752075 1374.370361,365.558411 
	C1383.144531,369.078003 1385.391113,373.939911 1383.662476,383.028595 
	C1381.859619,392.507080 1378.409424,401.424988 1372.161987,410.203613 
	C1367.223267,400.941254 1359.056519,399.870148 1350.660156,400.908539 
	C1342.132080,401.963257 1333.743896,404.148987 1324.558350,406.089233 
z"/>
<path fill="#FEFEFF" opacity="1.000000" stroke="none" 
	d="
M1077.503174,1195.503174 
	C1111.311279,1161.887207 1144.618042,1128.769775 1178.893799,1094.688965 
	C1254.704346,1170.067261 1330.146973,1245.079956 1406.907959,1321.403198 
	C1254.394043,1321.403198 1103.757202,1321.403198 950.911133,1321.403198 
	C965.770325,1306.555786 979.562927,1292.885376 993.331848,1279.192505 
	C1007.275330,1265.325928 1021.222717,1251.463257 1035.167725,1237.598267 
	C1049.112793,1223.733154 1063.057007,1209.867188 1077.503174,1195.503174 
z"/>
<path fill="#FCFDFF" opacity="1.000000" stroke="none" 
	d="
M1854.280151,1552.278809 
	C1886.470825,1520.426270 1918.158203,1489.070312 1950.114380,1457.448242 
	C1952.495239,1464.763306 1953.108643,1755.970581 1950.962524,1768.351562 
	C1933.879517,1768.351562 1916.733032,1768.351562 1898.432861,1768.351562 
	C1898.432861,1706.688843 1898.432861,1645.661621 1898.432861,1584.634399 
	C1897.786133,1584.371948 1897.139404,1584.109497 1896.492676,1583.847046 
	C1862.374512,1617.769653 1828.256348,1651.692261 1793.439453,1686.309692 
	C1758.649048,1651.819580 1724.295654,1617.762695 1688.173096,1581.951904 
	C1688.173096,1645.548584 1688.173096,1706.617554 1688.173096,1768.339844 
	C1670.341675,1768.339844 1653.512451,1768.339844 1636.185791,1768.339844 
	C1636.185791,1664.883423 1636.185791,1561.784668 1636.185791,1458.850708 
	C1636.836426,1458.543213 1637.130371,1458.310547 1637.441040,1458.285400 
	C1637.721436,1458.262817 1638.068848,1458.403809 1638.301880,1458.583008 
	C1639.090088,1459.188843 1639.894165,1459.789551 1640.597900,1460.487183 
	C1690.761841,1510.209229 1740.916138,1559.940918 1791.080444,1609.662598 
	C1791.548462,1610.126465 1792.120850,1610.497314 1792.685059,1610.846191 
	C1792.928711,1610.996704 1793.275513,1610.980225 1794.632568,1611.249023 
	C1814.056274,1592.045532 1833.916504,1572.410522 1854.280151,1552.278809 
z"/>
<path fill="#FCFDFF" opacity="1.000000" stroke="none" 
	d="
M1575.984863,1568.103271 
	C1605.663452,1676.938477 1524.157227,1756.840942 1447.576904,1767.662720 
	C1365.271851,1779.293457 1285.992188,1726.318115 1269.006104,1645.789429 
	C1246.323120,1538.252808 1333.445801,1455.178833 1419.985962,1455.463989 
	C1492.692871,1455.703491 1552.403320,1497.601074 1575.984863,1568.103271 
M1479.223877,1523.606689 
	C1461.860840,1512.564453 1442.859619,1507.701782 1422.325195,1507.848267 
	C1354.640869,1508.331055 1305.627930,1571.170288 1321.012695,1637.095703 
	C1330.193359,1676.436157 1369.259155,1718.958618 1429.340088,1716.707764 
	C1481.534302,1714.752441 1539.835327,1665.748779 1526.922852,1592.665771 
	C1521.696289,1563.083984 1504.746338,1541.144287 1479.223877,1523.606689 
z"/>
<path fill="#FDFDFF" opacity="1.000000" stroke="none" 
	d="
M490.004517,1586.289185 
	C532.244629,1586.289185 573.486084,1586.289185 615.310303,1586.289185 
	C615.310303,1603.779297 615.310303,1620.257568 615.310303,1638.055664 
	C588.856506,1638.055664 562.653809,1638.055664 536.451050,1638.055664 
	C510.548523,1638.055664 484.646027,1638.055664 458.233856,1638.055664 
	C458.233856,1664.566040 458.233856,1690.037109 458.233856,1716.380615 
	C510.545685,1716.380615 562.397339,1716.380615 614.622681,1716.380615 
	C617.098755,1725.575317 615.562805,1734.192017 615.841919,1742.674561 
	C616.115051,1750.973145 615.901367,1759.287842 615.901367,1768.294189 
	C545.787292,1768.294189 476.298584,1768.294189 406.185303,1768.294189 
	C406.185303,1664.326172 406.185303,1560.548584 406.185303,1456.217041 
	C475.924835,1456.217041 545.377686,1456.217041 615.366089,1456.217041 
	C615.366089,1473.212158 615.366089,1489.741333 615.366089,1507.657715 
	C589.145325,1508.057007 562.966797,1507.789429 536.796143,1507.837646 
	C510.861755,1507.885498 484.927246,1507.848145 458.355194,1507.848145 
	C458.355194,1534.066528 458.355194,1559.533936 458.355194,1586.289185 
	C468.601593,1586.289185 478.803741,1586.289185 490.004517,1586.289185 
z"/>
<path fill="#FCFDFF" opacity="1.000000" stroke="none" 
	d="
M1124.743408,1715.487305 
	C1146.896729,1711.645386 1165.253174,1702.078125 1181.698120,1686.494995 
	C1194.120605,1698.594971 1206.204346,1710.365112 1218.268921,1722.116455 
	C1175.727173,1771.374512 1078.885986,1792.171753 1006.049316,1732.421997 
	C936.116028,1675.054077 929.305786,1571.766724 991.494629,1505.934814 
	C1057.787842,1435.758179 1162.155640,1443.066040 1217.008911,1500.040161 
	C1205.085571,1512.370483 1193.176514,1524.686157 1180.946777,1537.333252 
	C1178.879150,1535.606934 1176.409058,1533.453247 1173.845459,1531.417603 
	C1142.152222,1506.252930 1106.711792,1500.805542 1069.454834,1514.977417 
	C1031.639893,1529.361450 1008.866394,1557.982910 1002.640686,1598.051392 
	C993.449524,1657.205688 1040.122437,1713.395630 1099.906372,1716.231079 
	C1107.865356,1716.608398 1115.877686,1715.857788 1124.743408,1715.487305 
z"/>
<path fill="#FCFCFF" opacity="1.000000" stroke="none" 
	d="
M710.427795,1753.695923 
	C710.427795,1654.182861 710.427795,1555.632935 710.427795,1456.371826 
	C728.013672,1456.371826 744.809204,1456.371826 762.436035,1456.371826 
	C762.436035,1542.615845 762.436035,1628.803833 762.436035,1716.341553 
	C776.062683,1716.416626 788.918945,1716.515869 801.775269,1716.550171 
	C815.101379,1716.585693 828.427673,1716.558105 841.753845,1716.558105 
	C854.746826,1716.558105 867.739868,1716.558105 880.732849,1716.558105 
	C893.684204,1716.558105 906.635559,1716.558105 920.967407,1716.558105 
	C921.297791,1734.055054 921.106934,1750.836060 921.102417,1768.316650 
	C850.778809,1768.316650 781.340149,1768.316650 710.427795,1768.316650 
	C710.427795,1763.681030 710.427795,1759.170044 710.427795,1753.695923 
z"/>
<path fill="#F1F5FF" opacity="1.000000" stroke="none" 
	d="
M1884.415039,1979.785034 
	C1884.276733,1965.839478 1884.808594,1952.809937 1883.827026,1939.895264 
	C1882.655151,1924.477417 1867.607666,1917.324829 1854.665039,1925.920044 
	C1850.490601,1928.692261 1846.819336,1933.339233 1844.810059,1937.952515 
	C1842.635010,1942.946289 1842.057739,1948.882202 1841.866699,1954.444458 
	C1841.432739,1967.079346 1841.670044,1979.737061 1841.602295,1992.385376 
	C1841.598877,1993.017212 1841.290405,1993.647461 1840.821167,1995.427002 
	C1837.786987,1995.573120 1834.389771,1995.736816 1830.167725,1995.940186 
	C1830.167725,1968.675537 1830.167725,1942.195312 1830.167725,1915.067383 
	C1833.103027,1915.067383 1836.219727,1915.067383 1839.520386,1915.067383 
	C1840.293701,1918.295654 1841.030762,1921.373169 1841.824097,1924.685059 
	C1865.310669,1907.181763 1878.242920,1908.035278 1893.149780,1927.893188 
	C1895.153198,1925.626221 1896.956543,1923.231689 1899.109741,1921.209961 
	C1908.797119,1912.114502 1920.251343,1910.557007 1932.557861,1914.128540 
	C1943.670898,1917.353882 1950.620605,1925.630127 1951.266968,1936.499512 
	C1952.424072,1955.962769 1951.593018,1975.544312 1951.593018,1995.502197 
	C1947.951904,1995.502197 1944.761353,1995.502197 1940.980957,1995.502197 
	C1940.728516,1992.651611 1940.319702,1990.083862 1940.304443,1987.513794 
	C1940.230713,1975.197144 1940.418457,1962.876831 1940.178223,1950.564331 
	C1940.088379,1945.960693 1939.518555,1941.268677 1938.413696,1936.803467 
	C1936.245605,1928.041870 1930.189819,1923.204224 1921.293213,1922.577271 
	C1912.675537,1921.970093 1904.986572,1924.936035 1901.408569,1933.053955 
	C1898.667236,1939.273804 1897.110962,1946.341675 1896.611694,1953.148682 
	C1895.834351,1963.744629 1896.401245,1974.438965 1896.398804,1985.091675 
	C1896.398071,1988.357544 1896.398682,1991.623535 1896.398682,1995.394531 
	C1892.284912,1995.394531 1889.100830,1995.394531 1884.415039,1995.394531 
	C1884.415039,1990.473022 1884.415039,1985.612427 1884.415039,1979.785034 
z"/>
<path fill="#F2F5FF" opacity="1.000000" stroke="none" 
	d="
M1321.991211,1917.709595 
	C1329.720215,1923.532837 1333.522095,1931.075073 1333.771118,1939.621338 
	C1334.303345,1957.887451 1333.933960,1976.179932 1333.933960,1995.195557 
	C1330.166138,1995.195557 1326.775146,1995.195557 1322.223755,1995.195557 
	C1322.223755,1991.727417 1322.229004,1988.487061 1322.222900,1985.246704 
	C1322.199219,1972.585815 1322.649536,1959.897583 1321.931885,1947.276123 
	C1321.603760,1941.506104 1320.147339,1935.136230 1317.150269,1930.313965 
	C1309.893921,1918.638306 1290.456665,1919.795044 1283.689819,1932.533447 
	C1280.403320,1938.720459 1278.976562,1946.396240 1278.569092,1953.504639 
	C1277.790039,1967.092773 1278.342651,1980.757202 1278.342651,1995.156982 
	C1274.387939,1995.156982 1270.983643,1995.156982 1266.869751,1995.156982 
	C1266.685303,1992.200562 1266.364014,1989.292236 1266.345703,1986.382202 
	C1266.255615,1972.055786 1266.499878,1957.722290 1266.130005,1943.404175 
	C1265.813477,1931.154419 1261.426147,1925.195068 1252.254761,1923.048340 
	C1242.375610,1920.735840 1232.282715,1925.431396 1227.730469,1935.690552 
	C1225.372681,1941.004272 1224.179565,1947.137207 1223.843262,1952.979492 
	C1223.231567,1963.606934 1223.650757,1974.293823 1223.641235,1984.955811 
	C1223.638428,1988.213379 1223.640869,1991.470947 1223.640869,1995.365601 
	C1219.500488,1995.612671 1216.314575,1995.802856 1212.173584,1996.049927 
	C1212.173584,1968.995117 1212.173584,1942.502930 1212.173584,1914.994263 
	C1214.725342,1914.826782 1217.806641,1914.624512 1221.406250,1914.388306 
	C1222.130371,1918.136230 1222.730347,1921.242188 1223.371338,1924.559937 
	C1249.198120,1907.531494 1260.530151,1908.239136 1275.005493,1927.916870 
	C1281.259888,1919.816772 1288.733398,1913.659912 1299.303833,1912.637939 
	C1307.160156,1911.878296 1314.550659,1913.192871 1321.991211,1917.709595 
z"/>
<path fill="#F0F4FF" opacity="1.000000" stroke="none" 
	d="
M553.085693,1957.157959 
	C548.553223,1942.836060 544.314697,1929.258057 539.838501,1914.918823 
	C544.452271,1914.918823 548.005615,1914.918823 552.370422,1914.918823 
	C558.639282,1935.549072 564.945312,1956.301514 571.251282,1977.053955 
	C571.946594,1976.979248 572.641846,1976.904419 573.337158,1976.829712 
	C580.274658,1956.176880 587.212158,1935.524170 594.186584,1914.761475 
	C598.122253,1914.761475 601.386597,1914.761475 605.616577,1914.761475 
	C612.637390,1935.328613 619.695374,1956.004639 626.753357,1976.680664 
	C636.146851,1956.760742 640.516052,1935.444580 647.834656,1914.881104 
	C651.756226,1914.881104 655.282532,1914.881104 660.061584,1914.881104 
	C651.449036,1942.169312 643.087585,1968.662109 634.632507,1995.451294 
	C630.172729,1995.451294 626.289612,1995.451294 621.521851,1995.451294 
	C614.676392,1974.998047 607.755554,1954.319824 600.834778,1933.641602 
	C600.113220,1933.590332 599.391724,1933.539062 598.670166,1933.487793 
	C591.938538,1954.014771 585.206909,1974.541748 578.359192,1995.422607 
	C574.089783,1995.422607 570.215271,1995.422607 565.198242,1995.422607 
	C561.333130,1983.152100 557.356323,1970.526978 553.085693,1957.157959 
z"/>
<path fill="#F0F4FF" opacity="1.000000" stroke="none" 
	d="
M480.798096,1973.537354 
	C476.168915,1959.692383 471.844574,1946.577393 467.520203,1933.462280 
	C466.825165,1933.413208 466.130096,1933.364258 465.435028,1933.315186 
	C458.636536,1953.983398 451.838013,1974.651611 444.970795,1995.528564 
	C440.524200,1995.528564 436.616913,1995.528564 431.917633,1995.528564 
	C423.528931,1969.000732 415.136322,1942.460449 406.456665,1915.012451 
	C411.164154,1915.012451 414.665436,1915.012451 419.105316,1915.012451 
	C425.356018,1935.707031 431.670563,1956.613037 437.985107,1977.518921 
	C438.560577,1977.564209 439.136017,1977.609497 439.711487,1977.654785 
	C446.731628,1956.773926 453.751740,1935.893066 460.834839,1914.824951 
	C464.675140,1914.824951 467.935120,1914.824951 472.307526,1914.824951 
	C479.356598,1935.467651 486.512207,1956.422241 493.667816,1977.376953 
	C494.289978,1977.400269 494.912140,1977.423584 495.534302,1977.446899 
	C501.731262,1956.736450 507.928223,1936.026001 514.238159,1914.937988 
	C518.117249,1914.937988 521.628601,1914.937988 526.692261,1914.937988 
	C518.122498,1942.131348 509.781982,1968.597168 501.323364,1995.437744 
	C497.080963,1995.437744 493.182434,1995.437744 488.170563,1995.437744 
	C485.892456,1988.613892 483.497681,1981.440430 480.798096,1973.537354 
z"/>
<path fill="#F0F4FF" opacity="1.000000" stroke="none" 
	d="
M775.866577,1931.575928 
	C777.605652,1925.720947 779.162537,1920.648315 780.886353,1915.031494 
	C784.497681,1915.031494 788.000366,1915.031494 792.870544,1915.031494 
	C785.463989,1942.177979 776.212463,1968.335205 768.005188,1995.333740 
	C763.846130,1995.333740 759.983093,1995.333740 754.822388,1995.333740 
	C748.003967,1974.952515 740.977966,1953.950928 733.952026,1932.949341 
	C733.396301,1932.887329 732.840515,1932.825195 732.284729,1932.763184 
	C725.405640,1953.634277 718.526489,1974.505493 711.582275,1995.574219 
	C707.207092,1995.574219 703.290344,1995.574219 698.572632,1995.574219 
	C690.176331,1969.007446 681.799011,1942.500732 673.207947,1915.317871 
	C676.166992,1914.915649 678.043945,1914.531494 679.934814,1914.442627 
	C681.566040,1914.365845 683.213196,1914.625000 685.701294,1914.792725 
	C691.993652,1935.661011 698.286682,1956.531616 704.579712,1977.402222 
	C705.169495,1977.495239 705.759338,1977.588135 706.349121,1977.681152 
	C713.393982,1956.739136 720.438904,1935.797119 727.513123,1914.767700 
	C731.500366,1914.767700 734.752625,1914.767700 738.955688,1914.767700 
	C746.081665,1935.670898 753.239075,1956.666504 760.396545,1977.661987 
	C760.946594,1977.716553 761.496643,1977.771118 762.046692,1977.825684 
	C766.592590,1962.669800 771.138489,1947.513916 775.866577,1931.575928 
z"/>
<path fill="#EFF4FF" opacity="1.000000" stroke="none" 
	d="
M876.423218,1958.325439 
	C872.926086,1958.531860 870.377319,1958.738037 867.378113,1958.980469 
	C867.573242,1971.871338 873.675720,1980.535156 884.505432,1985.176270 
	C899.306030,1991.519165 911.718201,1986.408081 922.562439,1974.301636 
	C925.147949,1976.194702 927.667969,1978.039917 930.133362,1979.845093 
	C922.718750,1993.330688 905.544556,2000.489380 888.823303,1997.449463 
	C864.012085,1992.938843 849.461243,1969.454590 855.703308,1943.995239 
	C861.507812,1920.320801 884.544495,1907.283936 908.274475,1914.244263 
	C922.345459,1918.371582 932.234985,1930.818115 933.860840,1946.722778 
	C934.196289,1950.004028 933.909485,1953.348755 933.909485,1957.967529 
	C924.365173,1958.694214 914.826355,1958.223511 905.327087,1958.307251 
	C896.009277,1958.389404 886.690125,1958.325073 876.423218,1958.325439 
M919.843933,1948.500977 
	C920.453003,1947.449585 921.660217,1946.350464 921.580872,1945.353882 
	C920.505920,1931.849854 908.933044,1922.010010 894.826599,1922.426147 
	C880.235046,1922.856812 868.641724,1933.956299 868.341125,1948.805542 
	C884.916077,1948.805542 901.492920,1948.805542 919.843933,1948.500977 
z"/>
<path fill="#F2F6FF" opacity="1.000000" stroke="none" 
	d="
M1714.813721,1945.518311 
	C1720.416748,1920.153198 1746.084839,1906.955811 1771.379883,1914.621216 
	C1791.211060,1920.630981 1802.577148,1939.391235 1800.050293,1961.530884 
	C1797.793701,1981.301270 1781.597656,1996.424927 1761.001709,1997.875732 
	C1730.804077,2000.003052 1709.337646,1976.408813 1714.813721,1945.518311 
M1784.455811,1970.822510 
	C1785.404297,1967.997070 1786.647095,1965.233032 1787.252441,1962.335693 
	C1790.626587,1946.187500 1782.435181,1929.568237 1768.458008,1924.558838 
	C1756.940308,1920.430664 1745.893677,1921.707275 1736.831665,1930.219238 
	C1726.393677,1940.023926 1724.181885,1952.479980 1728.033569,1965.960693 
	C1731.450684,1977.921021 1739.548828,1985.461182 1751.812988,1987.341675 
	C1765.570190,1989.450684 1776.613525,1984.594727 1784.455811,1970.822510 
z"/>
<path fill="#F2F6FF" opacity="1.000000" stroke="none" 
	d="
M1166.431274,1921.445068 
	C1180.627930,1933.375244 1184.693115,1948.311768 1181.292114,1965.132568 
	C1176.664062,1988.021118 1153.930054,2001.968628 1130.236084,1997.245117 
	C1106.566284,1992.526367 1092.294922,1971.619995 1096.284424,1947.508179 
	C1099.983765,1925.148682 1120.786133,1909.818237 1143.674194,1912.658447 
	C1151.717529,1913.656616 1159.292236,1916.021851 1166.431274,1921.445068 
M1123.828247,1926.332153 
	C1111.055908,1932.895996 1105.415039,1951.440063 1109.741821,1965.547485 
	C1113.867676,1978.999878 1124.396606,1987.495361 1138.211426,1987.807495 
	C1152.535889,1988.131226 1164.102295,1979.928101 1168.093506,1966.170776 
	C1171.998413,1952.710449 1170.014893,1940.156616 1159.508545,1930.405884 
	C1149.498413,1921.115845 1137.628052,1920.172974 1123.828247,1926.332153 
z"/>
<path fill="#F1F5FF" opacity="1.000000" stroke="none" 
	d="
M1545.352539,1939.222412 
	C1545.600098,1957.400391 1545.701782,1974.707275 1545.747070,1992.014404 
	C1545.749512,1992.949219 1545.279419,1993.885376 1544.858643,1995.458984 
	C1541.695801,1995.630127 1538.507446,1995.802490 1534.638550,1996.011719 
	C1534.333008,1992.943970 1533.876587,1990.394043 1533.859375,1987.841187 
	C1533.778809,1975.857056 1533.904541,1963.871094 1533.767212,1951.888062 
	C1533.721680,1947.920166 1533.355713,1943.918091 1532.707153,1940.002686 
	C1531.208496,1930.955444 1526.455078,1924.679565 1516.961182,1922.998779 
	C1507.202759,1921.271240 1499.214722,1924.374512 1493.335205,1932.355347 
	C1489.031860,1938.196777 1487.569702,1945.007690 1487.519653,1952.141357 
	C1487.442505,1963.126587 1487.451172,1974.112427 1487.427490,1985.098022 
	C1487.420410,1988.358032 1487.426514,1991.618164 1487.426514,1995.406738 
	C1483.208496,1995.406738 1480.022461,1995.406738 1475.878174,1995.406738 
	C1475.878174,1968.885010 1475.878174,1942.443237 1475.878174,1915.003296 
	C1478.477295,1914.829956 1481.573853,1914.623657 1485.286011,1914.376099 
	C1485.944824,1918.105225 1486.489258,1921.187500 1487.231567,1925.389648 
	C1490.176880,1923.021362 1492.307739,1921.171143 1494.575928,1919.507935 
	C1504.744629,1912.051270 1515.906616,1910.394287 1527.667358,1914.721924 
	C1538.495850,1918.706421 1543.329346,1927.521362 1545.352539,1939.222412 
z"/>
<path fill="#F1F5FF" opacity="1.000000" stroke="none" 
	d="
M1624.012085,1946.098389 
	C1629.857666,1918.010620 1657.406616,1908.109375 1677.973022,1914.176025 
	C1685.045166,1916.262329 1691.479492,1919.559204 1696.319092,1926.513428 
	C1693.567017,1928.661743 1691.090820,1930.594849 1688.176514,1932.869873 
	C1681.289185,1925.894043 1673.600220,1921.551758 1663.966919,1922.585938 
	C1656.127075,1923.427612 1649.203613,1926.358765 1643.837891,1932.454956 
	C1633.016479,1944.749268 1633.167847,1966.429321 1644.226807,1978.428345 
	C1655.668457,1990.842407 1672.216553,1990.763306 1689.254028,1977.954346 
	C1691.530029,1979.589966 1693.911133,1981.301270 1696.738037,1983.333008 
	C1693.118164,1990.263184 1687.108643,1993.616211 1680.521118,1995.756348 
	C1654.955200,2004.061768 1622.320923,1989.574097 1623.369873,1953.866211 
	C1623.438232,1951.539062 1623.719971,1949.218262 1624.012085,1946.098389 
z"/>
<path fill="#F1F5FF" opacity="1.000000" stroke="none" 
	d="
M1023.290710,1990.917114 
	C1006.609985,1978.909302 1002.684387,1962.638794 1006.401794,1944.426758 
	C1009.677612,1928.378540 1020.197205,1918.079956 1036.170288,1914.058105 
	C1052.164917,1910.030640 1066.294556,1913.271606 1078.637207,1926.168091 
	C1075.501587,1928.629395 1073.030029,1930.569458 1070.080566,1932.884644 
	C1063.231812,1925.901611 1055.539673,1921.574219 1045.918457,1922.584839 
	C1038.072754,1923.408813 1031.137939,1926.326782 1025.764648,1932.418945 
	C1014.933777,1944.699219 1015.070251,1966.432617 1026.114014,1978.418091 
	C1037.557983,1990.838379 1054.070679,1990.760376 1071.176147,1977.950806 
	C1073.444702,1979.593994 1075.816162,1981.311523 1078.606445,1983.332520 
	C1075.052124,1990.345459 1068.974731,1993.619263 1062.375854,1995.753296 
	C1048.973755,2000.087280 1036.083740,1998.354980 1023.290710,1990.917114 
z"/>
<path fill="#F1F5FF" opacity="1.000000" stroke="none" 
	d="
M963.745789,1936.000000 
	C963.745789,1912.042969 963.745789,1889.085938 963.745789,1865.306763 
	C967.656555,1865.306763 971.054871,1865.306763 975.112183,1865.306763 
	C975.112183,1908.491821 975.112183,1951.587524 975.112183,1995.257568 
	C973.346680,1995.501221 971.790100,1995.841187 970.223267,1995.897827 
	C968.574707,1995.957397 966.916443,1995.746582 963.776672,1995.570435 
	C963.766418,1985.704712 963.752197,1975.837402 963.746948,1965.970093 
	C963.741760,1956.313354 963.745789,1946.656738 963.745789,1936.000000 
z"/>
<path fill="#F0F4FF" opacity="1.000000" stroke="none" 
	d="
M1428.102783,1930.223022 
	C1428.102905,1924.671265 1428.102905,1920.083374 1428.102905,1914.977051 
	C1432.346191,1914.977051 1435.520752,1914.977051 1439.416992,1914.977051 
	C1439.416992,1941.583130 1439.416992,1968.053711 1439.416992,1995.236450 
	C1436.000732,1995.236450 1432.599731,1995.236450 1428.102661,1995.236450 
	C1428.102661,1973.671631 1428.102661,1952.429199 1428.102783,1930.223022 
z"/>
<path fill="#EAF0FF" opacity="1.000000" stroke="none" 
	d="
M1378.211060,1948.562256 
	C1385.715088,1948.562378 1392.277100,1948.562378 1399.597290,1948.562378 
	C1399.813599,1952.034668 1399.984863,1954.783691 1400.193237,1958.127075 
	C1387.085815,1958.127075 1374.724365,1958.127075 1362.069824,1958.127075 
	C1362.069824,1954.972534 1362.069824,1952.189697 1362.069824,1948.562256 
	C1367.512207,1948.562256 1372.390625,1948.562256 1378.211060,1948.562256 
z"/>
<path fill="#EFF4FF" opacity="1.000000" stroke="none" 
	d="
M816.734253,1996.567261 
	C814.374023,1995.481201 812.270569,1994.860229 811.138245,1993.456177 
	C807.376770,1988.791626 808.356628,1982.900269 813.075317,1979.722168 
	C817.443604,1976.780151 822.998413,1977.979736 825.976990,1982.508057 
	C829.102478,1987.260254 827.627075,1992.864746 822.224915,1995.801392 
	C820.870728,1996.537720 819.044922,1996.406372 816.734253,1996.567261 
z"/>
<path fill="#F1F5FF" opacity="1.000000" stroke="none" 
	d="
M1589.341431,1978.434082 
	C1591.815430,1980.134277 1594.054321,1981.332397 1595.133545,1983.200439 
	C1597.641968,1987.542114 1595.997314,1992.947021 1591.943115,1995.399414 
	C1587.564087,1998.048218 1581.406006,1996.463501 1578.931763,1992.051147 
	C1576.573486,1987.845459 1577.703491,1982.473389 1582.009888,1979.849609 
	C1583.845947,1978.731079 1586.368774,1978.739746 1589.341431,1978.434082 
z"/>
<path fill="#EAF0FF" opacity="1.000000" stroke="none" 
	d="
M1425.941040,1883.949219 
	C1426.650635,1881.410522 1426.986572,1879.252075 1428.221191,1877.937622 
	C1431.454346,1874.495850 1436.422363,1874.429810 1439.713013,1877.350952 
	C1442.974609,1880.246338 1443.258667,1885.571777 1440.327515,1888.868652 
	C1437.206787,1892.379150 1432.712646,1892.858154 1428.944214,1889.648560 
	C1427.558960,1888.468750 1426.943481,1886.385376 1425.941040,1883.949219 
z"/>
<path fill="#1150FF" opacity="1.000000" stroke="none" 
	d="
M1479.848267,1523.976440 
	C1504.746338,1541.144287 1521.696289,1563.083984 1526.922852,1592.665771 
	C1539.835327,1665.748779 1481.534302,1714.752441 1429.340088,1716.707764 
	C1369.259155,1718.958618 1330.193359,1676.436157 1321.012695,1637.095703 
	C1305.627930,1571.170288 1354.640869,1508.331055 1422.325195,1507.848267 
	C1442.859619,1507.701782 1461.860840,1512.564453 1479.848267,1523.976440 
z"/>
<path fill="#1552FF" opacity="1.000000" stroke="none" 
	d="
M918.956848,1948.653320 
	C901.492920,1948.805542 884.916077,1948.805542 868.341125,1948.805542 
	C868.641724,1933.956299 880.235046,1922.856812 894.826599,1922.426147 
	C908.933044,1922.010010 920.505920,1931.849854 921.580872,1945.353882 
	C921.660217,1946.350464 920.453003,1947.449585 918.956848,1948.653320 
z"/>
<path fill="#1552FF" opacity="1.000000" stroke="none" 
	d="
M1784.139893,1971.525879 
	C1776.613525,1984.594727 1765.570190,1989.450684 1751.812988,1987.341675 
	C1739.548828,1985.461182 1731.450684,1977.921021 1728.033569,1965.960693 
	C1724.181885,1952.479980 1726.393677,1940.023926 1736.831665,1930.219238 
	C1745.893677,1921.707275 1756.940308,1920.430664 1768.458008,1924.558838 
	C1782.435181,1929.568237 1790.626587,1946.187500 1787.252441,1962.335693 
	C1786.647095,1965.233032 1785.404297,1967.997070 1784.139893,1971.525879 
z"/>
<path fill="#1552FF" opacity="1.000000" stroke="none" 
	d="
M1124.522949,1926.004883 
	C1137.628052,1920.172974 1149.498413,1921.115845 1159.508545,1930.405884 
	C1170.014893,1940.156616 1171.998413,1952.710449 1168.093506,1966.170776 
	C1164.102295,1979.928101 1152.535889,1988.131226 1138.211426,1987.807495 
	C1124.396606,1987.495361 1113.867676,1978.999878 1109.741821,1965.547485 
	C1105.415039,1951.440063 1111.055908,1932.895996 1124.522949,1926.004883 
z"/>
</svg>